<?xml version="1.0" encoding="utf-8"?>
<!-- Generator: Adobe Illustrator 24.3.0, SVG Export Plug-In . SVG Version: 6.00 Build 0)  -->
<svg version="1.1" id="Слой_1" xmlns="http://www.w3.org/2000/svg" xmlns:xlink="http://www.w3.org/1999/xlink" x="0px" y="0px"
	 viewBox="0 0 114 36" style="enable-background:new 0 0 114 36;" xml:space="preserve">
<style type="text/css">
	.st0{fill:url(#SVGID_1_);}
	.st1{fill:url(#SVGID_2_);}
	.st2{fill:url(#SVGID_3_);}
	.st3{fill:url(#SVGID_4_);}
	.st4{fill:url(#SVGID_5_);}
	.st5{fill:url(#SVGID_6_);}
	.st6{fill:url(#SVGID_7_);}
	.st7{fill:url(#SVGID_8_);}
	.st8{fill:url(#SVGID_9_);}
	.st9{fill:url(#SVGID_10_);}
	.st10{fill:url(#SVGID_11_);}
	.st11{fill:url(#SVGID_12_);}
	.st12{fill:url(#SVGID_13_);}
	.st13{fill:url(#SVGID_14_);}
</style>
<image style="display:none;overflow:visible;" width="1065" height="337" xlink:href="22C5F34A.jpg"  transform="matrix(1 0 0 1 -10.1483 -63.9502)">
</image>
<g>
	<g>
		<linearGradient id="SVGID_1_" gradientUnits="userSpaceOnUse" x1="23.5719" y1="16.5787" x2="13.0822" y2="24.4705">
			<stop  offset="0" style="stop-color:#52C234"/>
			<stop  offset="1" style="stop-color:#061700"/>
		</linearGradient>
		<path class="st0" d="M20.6,18.4C20.6,18.4,20.6,18.4,20.6,18.4c0,0-2.3-1-4.3,0c-2.1,1-3.2,3.7-3.2,3.7s3.5-1.8,4.9-1.3
			c-0.1,2.1-2.9,5-2.9,5s2.4-0.3,3.9-2.3C20.6,21.4,20.6,18.4,20.6,18.4z"/>
		<linearGradient id="SVGID_2_" gradientUnits="userSpaceOnUse" x1="1.9596" y1="22.6872" x2="9.2152" y2="22.6872">
			<stop  offset="0" style="stop-color:#52C234"/>
			<stop  offset="1" style="stop-color:#061700"/>
		</linearGradient>
		<path class="st1" d="M1,20.3C1,20.3,1,20.3,1,20.3c0,0,0.3,3,2,4.8c1.7,1.8,3.6,0.4,3.6,0.4S4.2,23.8,3.9,22
			c1.6-0.9,4.3,0.4,4.3,0.4s-0.8-2-2.9-2.7C3.2,18.9,1,20.3,1,20.3z"/>
		<linearGradient id="SVGID_3_" gradientUnits="userSpaceOnUse" x1="6.7708" y1="36.7865" x2="11.7771" y2="26.2523">
			<stop  offset="0" style="stop-color:#52C234"/>
			<stop  offset="1" style="stop-color:#061700"/>
		</linearGradient>
		<path class="st2" d="M7.3,35.7c0,0,0.2,0.3,0.2,0.3c0,0,2.6-0.4,4.1-2.4c1.5-2.1,1-7.1,1-7.1c0.1,0.1-1.7,3.3-3.9,5.6
			c-0.7-1.9,0.4-5.6,0.4-5.6s-1.8,1.2-2.3,3.9C6.2,33,7.3,35.7,7.3,35.7z"/>
		<linearGradient id="SVGID_4_" gradientUnits="userSpaceOnUse" x1="5.7869" y1="17.4774" x2="13.7283" y2="0.7672">
			<stop  offset="0" style="stop-color:#ED213A"/>
			<stop  offset="0.7599" style="stop-color:#93291E"/>
		</linearGradient>
		<path class="st3" d="M19.5,9.1c0,5-4.4,9.1-9.8,9.1C4.4,18.3,0,14.2,0,9.1C0,4.2,4.1,0.2,9.3,0C5.6,0.2,2.5,3.1,2.5,6.7
			c0,3.4,2.7,6.2,6.3,6.7c-2.5-1-4.3-3.4-4.3-6.1c0-1,0.2-2,0.7-2.8c0,0,0,0,0,0c0.4-0.8,0.9-1.5,1.6-2.1c0,0,0,0,0,0
			c0.9-0.6,2-1,3.3-1c1.9,0,3.5,0.9,4.4,2.1h0c0,0,0.1,0.1,0.1,0.1c0,0,0,0.1,0.1,0.1c0,0,0,0.1,0.1,0.1c0.3,0.5,0.5,1.1,0.5,1.8
			c0,0.8-0.3,1.5-0.6,1.9c0,0,0,0,0,0.1c0,0.1-0.1,0.1-0.1,0.2c0,0-0.8,1.3-1.8,1.3c0,0-0.9,0.1-1.3,0c-1-0.3-1.7-1-1.6-1.7
			c0.1-0.6,0.9-1,1.8-0.8c0.1,0,0.2,0.1,0.3,0.1c0.1,0,0.1,0,0.2,0c0.1,0,0.2-0.2,0.2-0.4c0,0,0,0,0,0c0-1.1-1-2-2.2-2
			c-0.2,0-0.4,0-0.6,0.1c0,0-0.1,0-0.1,0c0,0-0.1,0-0.1,0C9,4.3,8.7,4.5,8.4,4.7c0,0,0,0,0,0c0,0,0,0,0,0c0,0,0,0,0,0c0,0,0,0,0,0
			c0,0,0,0,0,0c0,0,0,0,0,0c0,0,0,0,0,0c0,0,0,0,0,0c0,0,0,0,0,0c0,0,0,0,0,0c0,0,0,0-0.1,0.1c0,0,0,0.1-0.1,0.1c0,0,0,0,0,0.1
			c0,0,0,0,0,0c0,0,0,0,0,0.1c0,0,0,0,0,0c0,0,0,0,0,0c0,0,0,0,0,0c0,0,0,0,0,0c0,0,0,0,0,0c0,0,0,0,0,0c0,0,0,0,0,0c0,0,0,0,0,0
			C7.6,5.9,7.5,6.6,7.5,7.3c0,0.8,0.2,1.5,0.6,2.2c0.8,1.3,2.3,2.2,4.1,2.2c1.8,0,3.3-0.9,4.1-2.2c0,0,0,0,0,0
			c0.4-0.6,0.6-1.3,0.6-2.1c0-0.1,0-0.2,0-0.2c0,0,0,0,0,0c0-0.1,0-0.2,0-0.3c0-2.7-1.8-5.1-4.3-6.1c0.4,0,0.7,0.1,1.1,0.2
			c2.1,0.9,3.8,2.4,4.8,4.3C19.2,6.3,19.5,7.7,19.5,9.1z"/>
	</g>
	<g>
		<linearGradient id="SVGID_5_" gradientUnits="userSpaceOnUse" x1="24.2908" y1="19.5591" x2="30.6853" y2="19.5591">
			<stop  offset="0" style="stop-color:#ED213A"/>
			<stop  offset="0.7599" style="stop-color:#93291E"/>
		</linearGradient>
		<path class="st4" d="M25.5,19.6l2.3,3.4h-1.2l-2.3-3.4l2.3-3.4h1.2L25.5,19.6z M28.4,19.6l2.3,3.4h-1.2l-2.3-3.4l2.3-3.4h1.2
			L28.4,19.6z"/>
		<linearGradient id="SVGID_6_" gradientUnits="userSpaceOnUse" x1="31.7128" y1="17.9908" x2="40.6337" y2="17.9908">
			<stop  offset="0" style="stop-color:#ED213A"/>
			<stop  offset="0.7599" style="stop-color:#93291E"/>
		</linearGradient>
		<path class="st5" d="M40.6,23.8c-0.6,0.3-1.7,0.6-3.1,0.6c-3.3,0-5.8-2.2-5.8-6.3c0-3.9,2.5-6.5,6.1-6.5c1.5,0,2.4,0.3,2.8,0.6
			l-0.4,1.3c-0.6-0.3-1.4-0.5-2.4-0.5c-2.8,0-4.6,1.9-4.6,5.1c0,3,1.7,5,4.5,5c0.9,0,1.9-0.2,2.5-0.5L40.6,23.8z"/>
		<linearGradient id="SVGID_7_" gradientUnits="userSpaceOnUse" x1="41.4521" y1="18" x2="52.1849" y2="18">
			<stop  offset="0" style="stop-color:#ED213A"/>
			<stop  offset="0.7599" style="stop-color:#93291E"/>
		</linearGradient>
		<path class="st6" d="M52.2,17.9c0,4.3-2.5,6.5-5.5,6.5c-3.1,0-5.3-2.5-5.3-6.3c0-3.9,2.3-6.5,5.5-6.5
			C50.1,11.6,52.2,14.2,52.2,17.9z M43.1,18.1c0,2.6,1.4,5,3.7,5c2.4,0,3.8-2.3,3.8-5.1c0-2.5-1.2-5-3.7-5
			C44.3,12.9,43.1,15.4,43.1,18.1z"/>
		<linearGradient id="SVGID_8_" gradientUnits="userSpaceOnUse" x1="53.5608" y1="17.9908" x2="60.6696" y2="17.9908">
			<stop  offset="0" style="stop-color:#ED213A"/>
			<stop  offset="0.7599" style="stop-color:#93291E"/>
		</linearGradient>
		<path class="st7" d="M53.9,22.2c0.7,0.4,1.7,0.8,2.7,0.8c1.6,0,2.5-0.9,2.5-2.1c0-1.2-0.6-1.8-2.2-2.5c-1.9-0.7-3.1-1.8-3.1-3.5
			c0-1.9,1.5-3.4,3.8-3.4c1.2,0,2.1,0.3,2.6,0.6l-0.4,1.3c-0.4-0.2-1.2-0.6-2.2-0.6c-1.6,0-2.2,1-2.2,1.9c0,1.2,0.7,1.7,2.3,2.4
			c2,0.8,3,1.8,3,3.6c0,1.9-1.3,3.6-4.1,3.6c-1.1,0-2.4-0.3-3-0.8L53.9,22.2z"/>
		<linearGradient id="SVGID_9_" gradientUnits="userSpaceOnUse" x1="62.4291" y1="18" x2="74.4164" y2="18">
			<stop  offset="0" style="stop-color:#ED213A"/>
			<stop  offset="0.7599" style="stop-color:#93291E"/>
		</linearGradient>
		<path class="st8" d="M72.6,18.8c-0.1-1.7-0.2-3.8-0.2-5.3h-0.1c-0.4,1.4-0.9,3-1.5,4.7l-2.1,6h-1.1l-1.9-5.9
			c-0.6-1.7-1-3.3-1.4-4.8h0c0,1.5-0.1,3.6-0.2,5.5l-0.3,5.3h-1.4l0.8-12.4h1.9l2,6c0.5,1.5,0.9,2.9,1.2,4.2h0.1
			c0.3-1.2,0.7-2.6,1.2-4.2l2.1-6h1.9l0.7,12.4h-1.5L72.6,18.8z"/>
		<linearGradient id="SVGID_10_" gradientUnits="userSpaceOnUse" x1="76.7504" y1="18" x2="83.354" y2="18">
			<stop  offset="0" style="stop-color:#ED213A"/>
			<stop  offset="0.7599" style="stop-color:#93291E"/>
		</linearGradient>
		<path class="st9" d="M82.8,18.4h-4.6v4.5h5.1v1.3h-6.6V11.8h6.3v1.3h-4.8v3.9h4.6V18.4z"/>
		<linearGradient id="SVGID_11_" gradientUnits="userSpaceOnUse" x1="84.2592" y1="18" x2="92.9536" y2="18">
			<stop  offset="0" style="stop-color:#ED213A"/>
			<stop  offset="0.7599" style="stop-color:#93291E"/>
		</linearGradient>
		<path class="st10" d="M87.8,13.2h-3.6v-1.4H93v1.4h-3.6v11h-1.5V13.2z"/>
		<linearGradient id="SVGID_12_" gradientUnits="userSpaceOnUse" x1="94.2599" y1="18" x2="95.7758" y2="18">
			<stop  offset="0" style="stop-color:#ED213A"/>
			<stop  offset="0.7599" style="stop-color:#93291E"/>
		</linearGradient>
		<path class="st11" d="M95.8,11.8v12.4h-1.5V11.8H95.8z"/>
		<linearGradient id="SVGID_13_" gradientUnits="userSpaceOnUse" x1="97.7271" y1="17.9908" x2="106.6479" y2="17.9908">
			<stop  offset="0" style="stop-color:#ED213A"/>
			<stop  offset="0.7599" style="stop-color:#93291E"/>
		</linearGradient>
		<path class="st12" d="M106.6,23.8c-0.6,0.3-1.7,0.6-3.1,0.6c-3.3,0-5.8-2.2-5.8-6.3c0-3.9,2.5-6.5,6.1-6.5c1.5,0,2.4,0.3,2.8,0.6
			l-0.4,1.3c-0.6-0.3-1.4-0.5-2.4-0.5c-2.8,0-4.6,1.9-4.6,5.1c0,3,1.7,5,4.5,5c0.9,0,1.9-0.2,2.5-0.5L106.6,23.8z"/>
		<linearGradient id="SVGID_14_" gradientUnits="userSpaceOnUse" x1="107.6056" y1="19.5591" x2="114" y2="19.5591">
			<stop  offset="0" style="stop-color:#ED213A"/>
			<stop  offset="0.7599" style="stop-color:#93291E"/>
		</linearGradient>
		<path class="st13" d="M107.6,16.2h1.2l2.3,3.4l-2.3,3.4h-1.2l2.3-3.4L107.6,16.2z M110.4,16.2h1.2l2.3,3.4l-2.3,3.4h-1.2l2.3-3.4
			L110.4,16.2z"/>
	</g>
</g>
</svg>
